<svg width="25" height="24" viewBox="0 0 25 24" fill="none" xmlns="http://www.w3.org/2000/svg">
<g clip-path="url(#clip0_1_2502)">
<path d="M18.5 4H6.5C5.39543 4 4.5 4.89543 4.5 6V18C4.5 19.1046 5.39543 20 6.5 20H18.5C19.6046 20 20.5 19.1046 20.5 18V6C20.5 4.89543 19.6046 4 18.5 4Z" stroke="#FFC130" stroke-width="1.5" stroke-linecap="round" stroke-linejoin="round"/>
<path d="M15.5 9H9.5V15H15.5V9Z" stroke="#FFC130" stroke-width="1.5" stroke-linecap="round" stroke-linejoin="round"/>
<path d="M9.5 1V4" stroke="#FFC130" stroke-width="1.5" stroke-linecap="round" stroke-linejoin="round"/>
<path d="M15.5 1V4" stroke="#FFC130" stroke-width="1.5" stroke-linecap="round" stroke-linejoin="round"/>
<path d="M9.5 20V23" stroke="#FFC130" stroke-width="1.5" stroke-linecap="round" stroke-linejoin="round"/>
<path d="M15.5 20V23" stroke="#FFC130" stroke-width="1.5" stroke-linecap="round" stroke-linejoin="round"/>
<path d="M20.5 9H23.5" stroke="#FFC130" stroke-width="1.5" stroke-linecap="round" stroke-linejoin="round"/>
<path d="M20.5 14H23.5" stroke="#FFC130" stroke-width="1.5" stroke-linecap="round" stroke-linejoin="round"/>
<path d="M1.5 9H4.5" stroke="#FFC130" stroke-width="1.5" stroke-linecap="round" stroke-linejoin="round"/>
<path d="M1.5 14H4.5" stroke="#FFC130" stroke-width="1.5" stroke-linecap="round" stroke-linejoin="round"/>
</g>
<defs>
<clipPath id="clip0_1_2502">
<rect width="24" height="24" fill="white" transform="translate(0.5)"/>
</clipPath>
</defs>
</svg>
