<svg width="24" height="24" viewBox="0 0 24 24" fill="none" xmlns="http://www.w3.org/2000/svg">
<path d="M14.1248 0.666992H3.26373C1.82817 0.666992 0.666504 1.82866 0.666504 3.26421V17.9031C0.666504 19.3387 1.82817 20.5003 3.26373 20.5003H10.9609C10.1676 19.2442 9.63873 17.7614 9.63873 16.0614V13.757C9.49706 13.842 9.3365 13.8892 9.1665 13.8892H4.44428C3.92484 13.8892 3.49984 13.4642 3.49984 12.9448C3.49984 12.4253 3.92484 12.0003 4.44428 12.0003H9.1665C9.34595 12.0003 9.5065 12.0475 9.64817 12.1325C9.68595 11.3298 10.0637 10.5931 10.6587 10.1114H4.44428C3.92484 10.1114 3.49984 9.68644 3.49984 9.16699C3.49984 8.64755 3.92484 8.22255 4.44428 8.22255H12.9443C13.3409 8.22255 13.6809 8.4681 13.8226 8.81755L16.5143 7.90144C16.5804 7.8731 16.6465 7.85421 16.7221 7.84477V3.26421C16.7221 1.82866 15.5604 0.666992 14.1248 0.666992ZM8.22206 6.33366H4.44428C3.92484 6.33366 3.49984 5.90866 3.49984 5.38921C3.49984 4.86977 3.92484 4.44477 4.44428 4.44477H8.22206C8.7415 4.44477 9.1665 4.86977 9.1665 5.38921C9.1665 5.90866 8.7415 6.33366 8.22206 6.33366Z" fill="#4F5574"/>
<path d="M22.6925 11.3757L17.7342 9.68896C17.5368 9.62191 17.3224 9.62191 17.125 9.68896L12.1667 11.3757C11.7842 11.5061 11.5264 11.8659 11.5264 12.2701V16.0649C11.5264 20.8504 16.8332 23.1624 17.0589 23.2587C17.1779 23.3088 17.3045 23.3334 17.4301 23.3334C17.5557 23.3334 17.6823 23.3088 17.8003 23.2578C18.026 23.1615 23.3329 20.8504 23.3329 16.0649V12.2701C23.3329 11.865 23.076 11.5061 22.6925 11.3757ZM20.7829 14.9278L17.9495 18.7056C17.7852 18.9247 17.5349 19.0616 17.261 19.0805C17.2384 19.0824 17.2157 19.0834 17.194 19.0834C16.9437 19.0834 16.7038 18.9851 16.5263 18.8066L14.6374 16.9177C14.2681 16.5485 14.2681 15.9516 14.6374 15.5823C15.0066 15.213 15.6035 15.213 15.9728 15.5823L17.092 16.7015L19.2718 13.7945C19.5844 13.378 20.1765 13.292 20.593 13.6056C21.0114 13.9182 21.0964 14.5104 20.7829 14.9278Z" fill="#4F5574"/>
</svg>
